<svg xmlns="http://www.w3.org/2000/svg" width="780" height="360" viewBox="0 0 780 360" role="img" aria-label="Three dimensions of measurement maturity: Proof Capacity, Operational Delivery, Ecosystem Unification — forming a chain that breaks at the weakest link">
  <!-- Box 1: Proof Capacity -->
  <g>
    <path d="M30.5 100.2 C85.4 99.1, 140.2 100.6, 215.3 101.4 M30.1 100.5 C82.0 101.9, 133.4 101.5, 215.8 100.2 M215.2 99.8 C215.1 142.5, 215.9 183.3, 215.7 221.9 M215.4 100.2 C215.9 137.0, 215.7 173.4, 215.8 221.9 M216.5 222.1 C156.8 222.7, 98.3 221.4, 30.1 221.2 M215.3 221.9 C158.4 222.3, 101.6 221.9, 30.2 222.1 M30.8 222.6 C29.4 178.0, 29.9 133.8, 30.5 100.7 M30.2 222.2 C29.7 180.5, 30.1 139.4, 30.3 100.4" stroke="#0C1A2A" stroke-width="2" fill="#FFFFFF"/>
  </g>
  <text x="123" y="135" text-anchor="middle" font-family="'Inter', system-ui, sans-serif" font-size="11" font-weight="600" fill="#1E90FF" letter-spacing="1.5">DIMENSION 1</text>
  <text x="123" y="162" text-anchor="middle" font-family="'Inter', system-ui, sans-serif" font-size="17" font-weight="700" fill="#0C1A2A">Proof Capacity</text>
  <text x="123" y="190" text-anchor="middle" font-family="'Inter', system-ui, sans-serif" font-size="13" font-weight="400" fill="rgba(12, 26, 42, 0.65)">What can you prove,</text>
  <text x="123" y="207" text-anchor="middle" font-family="'Inter', system-ui, sans-serif" font-size="13" font-weight="400" fill="rgba(12, 26, 42, 0.65)">and to whom?</text>

  <!-- Box 2: Operational Delivery -->
  <g>
    <path d="M282.1 100.4 C337.6 101.1, 393.0 100.9, 467.5 101.6 M282.4 100.8 C333.2 100.1, 384.1 99.8, 467.2 100.7 M467.9 99.5 C467.1 137.8, 467.4 176.6, 466.9 222.1 M467.7 100.5 C467.3 134.7, 467.3 168.5, 467.6 222.2 M468.4 221.6 C409.5 222.8, 349.2 221.7, 282.3 222.4 M467.5 221.9 C410.1 222.4, 352.3 221.8, 282.3 222.1 M281.9 222.8 C281.3 181.6, 282.2 140.3, 282.1 100.1 M282.5 222.1 C282.1 186.1, 281.9 150.0, 282.3 100.3" stroke="#0C1A2A" stroke-width="2" fill="#FFFFFF"/>
  </g>
  <text x="375" y="135" text-anchor="middle" font-family="'Inter', system-ui, sans-serif" font-size="11" font-weight="600" fill="#1E90FF" letter-spacing="1.5">DIMENSION 2</text>
  <text x="375" y="162" text-anchor="middle" font-family="'Inter', system-ui, sans-serif" font-size="17" font-weight="700" fill="#0C1A2A">Operational Delivery</text>
  <text x="375" y="190" text-anchor="middle" font-family="'Inter', system-ui, sans-serif" font-size="13" font-weight="400" fill="rgba(12, 26, 42, 0.65)">Can you deliver proof at the</text>
  <text x="375" y="207" text-anchor="middle" font-family="'Inter', system-ui, sans-serif" font-size="13" font-weight="400" fill="rgba(12, 26, 42, 0.65)">speed decisions are made?</text>

  <!-- Box 3: Ecosystem Unification -->
  <g>
    <path d="M534.3 100.2 C588.1 99.4, 643.1 101.0, 719.5 101.5 M534.1 100.4 C585.1 100.8, 636.2 101.2, 719.6 100.5 M720.2 99.8 C719.5 139.5, 719.9 179.0, 718.9 221.9 M719.7 100.2 C719.8 138.8, 719.6 177.4, 719.6 222.0 M720.5 222.4 C660.4 221.7, 602.2 221.5, 534.5 222.1 M719.4 221.8 C664.5 221.5, 609.7 221.9, 534.2 222.1 M534.1 222.7 C533.8 187.2, 534.9 150.5, 534.2 100.2 M534.2 222.0 C533.8 187.5, 534.2 152.3, 534.2 100.5" stroke="#0C1A2A" stroke-width="2" fill="#FFFFFF"/>
  </g>
  <text x="627" y="135" text-anchor="middle" font-family="'Inter', system-ui, sans-serif" font-size="11" font-weight="600" fill="#1E90FF" letter-spacing="1.5">DIMENSION 3</text>
  <text x="627" y="162" text-anchor="middle" font-family="'Inter', system-ui, sans-serif" font-size="17" font-weight="700" fill="#0C1A2A">Ecosystem Unification</text>
  <text x="627" y="190" text-anchor="middle" font-family="'Inter', system-ui, sans-serif" font-size="13" font-weight="400" fill="rgba(12, 26, 42, 0.65)">Are the systems producing</text>
  <text x="627" y="207" text-anchor="middle" font-family="'Inter', system-ui, sans-serif" font-size="13" font-weight="400" fill="rgba(12, 26, 42, 0.65)">proof actually connected?</text>

  <!-- Chain link 1-2 (connector with hand-drawn doubled lines) -->
  <g>
    <path d="M216.5 161.1 C232.0 160.7, 247.5 161.2, 282.0 160.8 M215.8 161.0 C234.5 161.0, 253.2 160.8, 282.3 161.0 M216.0 161.6 C235.0 160.9, 253.9 160.7, 282.3 161.4" stroke="#0C1A2A" stroke-width="1.5" fill="none"/>
  </g>
  <!-- Chain link 2-3 -->
  <g>
    <path d="M468.3 161.0 C484.1 161.5, 500.0 160.7, 534.0 161.3 M467.9 161.2 C486.3 160.9, 504.7 161.3, 534.2 161.1 M468.1 161.8 C487.0 161.0, 506.0 160.8, 534.5 161.4" stroke="#0C1A2A" stroke-width="1.5" fill="none"/>
  </g>

  <!-- "The Chain Breaks at the Weakest Link" footer accent -->
  <g>
    <path d="M206.9 278.1 C270.2 278.0, 333.8 279.6, 543.7 279.1 M207.2 278.3 C293.5 278.1, 379.9 279.2, 543.2 279.0 M543.4 278.6 C543.8 291.1, 543.4 304.0, 543.7 314.8 M543.3 279.2 C543.5 288.8, 543.3 298.5, 543.4 314.4 M543.5 314.9 C450.4 315.3, 357.7 315.3, 206.5 313.8 M543.5 314.8 C441.8 314.8, 340.0 314.4, 206.9 314.3 M206.7 315.2 C207.0 304.5, 207.1 293.8, 207.5 279.4 M207.1 314.5 C207.4 305.1, 206.7 295.7, 207.2 279.3" stroke="#1E90FF" stroke-width="1.5" fill="rgba(30, 144, 255, 0.08)"/>
  </g>
  <text x="375" y="302" text-anchor="middle" font-family="'Inter', system-ui, sans-serif" font-size="14" font-weight="600" fill="#0C1A2A">The chain does not average. It breaks at the weakest link.</text>
</svg>
