<svg xmlns="http://www.w3.org/2000/svg" width="720" height="480" viewBox="0 0 720 480" role="img" aria-label="Three failures compound: Trust Failure, Delivery Failure, Fragmentation Failure — each multiplies the others">
  <!-- Top box: Trust Failure -->
  <g>
    <path d="M260.2 19.1 C304.9 22.9, 349.0 22.6, 460.9 21.1 M260.1 20.3 C303.4 18.8, 346.2 18.9, 460.7 19.1 M459.1 17.7 C457.4 53.9, 460.7 82.1, 457.8 130.9 M459.1 20.9 C458.6 55.8, 460.4 88.9, 459.3 130.8 M458.8 130.2 C416.5 131.6, 375.3 130.4, 259.3 131.4 M460.2 130.3 C397.9 130.9, 335.8 129.9, 260.0 129.2 M261.4 129.7 C260.0 93.5, 260.0 52.8, 258.9 22.3 M260.8 130.1 C259.3 106.6, 258.1 82.3, 259.1 20.9" stroke="#0C1A2A" stroke-width="2" fill="#FFFFFF"/>
  </g>
  <text x="360" y="58" text-anchor="middle" font-family="'Inter', system-ui, sans-serif" font-size="17" font-weight="700" fill="#0C1A2A">Trust Failure</text>
  <text x="360" y="82" text-anchor="middle" font-family="'Inter', system-ui, sans-serif" font-size="13" font-weight="400" fill="rgba(12, 26, 42, 0.65)">Only 6% of advertisers fully</text>
  <text x="360" y="100" text-anchor="middle" font-family="'Inter', system-ui, sans-serif" font-size="13" font-weight="400" fill="rgba(12, 26, 42, 0.65)">trust RMN measurement</text>

  <!-- Bottom-left box: Delivery Failure -->
  <g>
    <path d="M28.4 292.0 C98.7 292.7, 168.3 290.5, 259.1 289.7 M30.8 289.0 C120.0 291.3, 211.3 289.8, 259.1 290.5 M259.7 289.1 C261.4 325.5, 258.7 356.7, 259.3 400.0 M259.8 289.9 C261.4 320.0, 261.8 349.6, 261.1 400.4 M261.7 400.6 C177.3 398.9, 96.0 401.2, 29.6 398.2 M259.2 399.5 C172.1 399.0, 86.7 400.1, 29.2 400.2 M31.3 402.2 C29.6 365.7, 28.5 330.9, 28.0 288.3 M29.7 400.7 C30.6 364.5, 30.0 329.7, 30.2 290.5" stroke="#0C1A2A" stroke-width="2" fill="#FFFFFF"/>
  </g>
  <text x="145" y="328" text-anchor="middle" font-family="'Inter', system-ui, sans-serif" font-size="17" font-weight="700" fill="#0C1A2A">Delivery Failure</text>
  <text x="145" y="352" text-anchor="middle" font-family="'Inter', system-ui, sans-serif" font-size="13" font-weight="400" fill="rgba(12, 26, 42, 0.65)">Proof arrives after the next</text>
  <text x="145" y="370" text-anchor="middle" font-family="'Inter', system-ui, sans-serif" font-size="13" font-weight="400" fill="rgba(12, 26, 42, 0.65)">spending decision is made</text>

  <!-- Bottom-right box: Fragmentation Failure -->
  <g>
    <path d="M458.6 289.8 C546.9 290.6, 632.1 291.2, 688.0 288.6 M459.7 289.5 C535.8 288.4, 611.2 288.4, 690.0 289.3 M690.6 291.1 C688.7 331.5, 691.2 373.2, 691.7 401.8 M689.6 289.6 C689.8 331.5, 690.8 372.4, 690.8 398.9 M688.7 399.0 C636.4 398.9, 581.5 399.2, 458.4 401.2 M689.6 400.0 C608.3 399.0, 528.6 399.4, 459.6 399.7 M461.8 398.5 C460.4 379.1, 459.6 351.7, 458.7 292.1 M460.5 400.5 C460.2 365.8, 459.1 329.5, 460.9 289.4" stroke="#0C1A2A" stroke-width="2" fill="#FFFFFF"/>
  </g>
  <text x="575" y="328" text-anchor="middle" font-family="'Inter', system-ui, sans-serif" font-size="17" font-weight="700" fill="#0C1A2A">Fragmentation Failure</text>
  <text x="575" y="352" text-anchor="middle" font-family="'Inter', system-ui, sans-serif" font-size="13" font-weight="400" fill="rgba(12, 26, 42, 0.65)">Disconnected systems</text>
  <text x="575" y="370" text-anchor="middle" font-family="'Inter', system-ui, sans-serif" font-size="13" font-weight="400" fill="rgba(12, 26, 42, 0.65)">double-count and contradict</text>

  <!-- Connecting curves (triangle edges) - hand drawn doubled paths -->
  <g>
    <path d="M321.5 130.7 C277.5 189.9, 231.9 247.7, 203.4 290.6 M319.9 129.6 C285.4 177.4, 251.1 224.4, 204.6 289.5" stroke="#0C1A2A" stroke-width="1.5" fill="none"/>
  </g>
  <g>
    <path d="M401.6 131.1 C429.8 171.5, 459.3 215.7, 514.2 290.5 M399.7 130.5 C436.5 179.9, 474.0 231.9, 514.4 289.3" stroke="#0C1A2A" stroke-width="1.5" fill="none"/>
  </g>
  <g>
    <path d="M259.7 344.2 C307.2 346.3, 353.2 344.6, 459.2 344.0 M260.3 345.4 C324.3 344.5, 389.8 344.7, 460.6 344.7" stroke="#0C1A2A" stroke-width="1.5" fill="none"/>
  </g>

  <!-- Center accent box: They Multiply, Not Add -->
  <g>
    <path d="M259.7 212.6 C318.3 212.2, 377.2 213.2, 460.1 213.0 M260.1 211.7 C324.9 210.5, 388.9 210.9, 459.7 212.1 M460.4 211.0 C459.9 223.9, 460.4 236.5, 459.1 247.2 M460.5 212.0 C459.9 221.7, 460.1 232.1, 460.1 248.5 M460.5 247.6 C419.4 247.5, 377.2 247.5, 260.3 248.7 M460.0 247.9 C415.0 248.8, 369.2 248.7, 260.3 247.7 M259.4 247.3 C258.9 237.1, 259.9 223.9, 260.2 211.9 M259.7 248.5 C260.0 235.3, 259.7 223.2, 260.5 211.7" stroke="#1E90FF" stroke-width="1.5" fill="rgba(30, 144, 255, 0.08)"/>
  </g>
  <text x="360" y="234" text-anchor="middle" font-family="'Inter', system-ui, sans-serif" font-size="14" font-weight="600" fill="#0C1A2A">They Multiply, Not Add</text>
  <text x="360" y="252" text-anchor="middle" font-family="'Inter', system-ui, sans-serif" font-size="12" font-weight="400" fill="rgba(12, 26, 42, 0.65)">The weakest dimension constrains the other two</text>
</svg>
