<svg xmlns="http://www.w3.org/2000/svg" width="720" height="220" viewBox="0 0 720 220"><g><path d="M16.488084736677703 16.488427971700816 L705.0684312900617 14.935248578686997 L705.7039456486247 204.6421705750686 L15.240131485804904 203.83762124092465" stroke="none" stroke-width="0" fill="rgba(30, 144, 255, 0.08)"></path><path d="M14.816090925080047 15.237705629134885 C230.3273347502929 15.461895605594524, 445.80790733239473 15.095119874429324, 705.0662039155552 14.642542871984062 M14.908624320701643 14.864143781277566 C224.99517752966136 15.859545032442545, 435.16769726307484 16.07242710009879, 704.9682698205946 15.062855845481941 M705.3591801917642 13.481294994499596 C705.9444340635661 57.39369981715795, 704.303423185655 101.21445708258447, 705.8696033560832 205.73661879670362 M704.6964837797657 14.430569806868952 C703.0576133447927 72.59705933030973, 703.5018324502505 129.18920983709245, 705.4689179795932 205.4346710371689 M704.9745255216262 205.06243023673485 C449.0768995213796 204.19125111585785, 192.14326969072363 204.37562385717385, 15.548902286291844 204.61713045915658 M705.0097063319436 205.02789522298758 C455.5873935170629 203.95537171222423, 205.8990657772209 204.15634744684894, 14.692914853935658 204.8093601725378 M14.32296371749872 204.74786377220508 C16.46018377776944 132.57905109428515, 16.274856841270598 60.32754381857464, 14.34576713378617 13.438190118159145 M14.719885562764029 205.58206953590835 C13.404663076377565 143.26776766578575, 12.801153235375768 82.13158465572215, 15.442390117293352 15.606175740839827" stroke="#1E90FF" stroke-width="1.5" fill="none"></path></g><text x="360" y="48" text-anchor="middle" font-family="'Inter', system-ui, sans-serif" font-size="15" font-weight="700" fill="#0C1A2A">The Operating System</text><g><path d="M38.480949927162456 74.90289294135047 L234.15923399013624 76.48133553364603 L236.50624262700833 194.88764945022922 L38.24569572797208 194.32767974981616" stroke="none" stroke-width="0" fill="#FFFFFF"></path><path d="M38.08570233427409 74.25111986285962 C96.36631585923539 71.21879134577472, 155.6284393333599 74.9433811037896, 236.8919979149896 74.16962328276917 M39.962517576521954 74.18718732769149 C115.7162461103668 76.41405605773332, 190.57541806230543 75.95533179428699, 235.77050922108583 74.99500542841518 M237.14302646453595 76.90188815444591 C232.86808730440237 104.59266249229167, 233.03868482381986 129.30665079789375, 233.01818514046425 197.1189662230764 M235.44409765934515 74.65869856319074 C234.8275241686666 114.81532106856675, 235.38087770844905 155.30221591808098, 235.9398986299947 195.4882869783684 M236.63576734658483 193.87447775776567 C175.63646726013013 195.54566546812035, 115.37919887932043 191.76520506770314, 38.47940951371771 196.62276788024272 M234.74264786254426 195.84358360136778 C171.08778065057976 197.32782012762155, 106.58091521410918 196.8983693962901, 39.91515534760224 195.17756298751544 M39.3039053464156 194.14259195079777 C40.70855422236654 166.588511238847, 37.53679090261719 136.75116531352884, 41.54470693138677 75.21965683871855 M40.08092470623416 193.90844680228997 C38.932796978457056 165.0166914577658, 39.07299803840309 134.96084514024417, 38.99661565692056 74.81590514483486" stroke="#0C1A2A" stroke-width="2" fill="none"></path></g><text x="137.5" y="115" text-anchor="middle" font-family="'Inter', system-ui, sans-serif" font-size="16" font-weight="700" fill="#0C1A2A">Delivery System</text><text x="137.5" y="140" text-anchor="middle" font-family="'Inter', system-ui, sans-serif" font-size="12" font-weight="400" fill="rgba(12, 26, 42, 0.6)">Scale execution by</text><text x="137.5" y="157" text-anchor="middle" font-family="'Inter', system-ui, sans-serif" font-size="12" font-weight="400" fill="rgba(12, 26, 42, 0.6)">removing constraints</text><g><path d="M240.09175998569563 134.2114265101984 C244.2985620359799 134.26367676880847, 252.66868264101464 135.16753331641152, 262.9482007638352 133.92666098897166 M239.58312880305633 134.76324058018963 C245.14531525164193 135.66139787542858, 249.57278146629756 135.13203233991138, 262.90777698256454 135.29001369603463" stroke="#0C1A2A" stroke-width="1.5" fill="none"></path></g><g><path d="M262.96778315294756 135.56380618123288 C259.1463634099675 132.8105485579879, 256.0843973994453 130.03656827683176, 253.00960093899428 128.41457664711083 M263.1763385320809 134.85166784524648 C260.4859294090928 133.10361005468155, 258.1109266177213 131.6878436969471, 252.93129102387095 128.19253954452336" stroke="#0C1A2A" stroke-width="1.5" fill="none"></path></g><g><path d="M263.11639247733746 135.35742866576965 C260.5850845896552 136.80805514114596, 257.9449675135913 139.1099149263046, 252.43024551525656 142.49715775495653 M263.1471637581121 134.82970450775352 C260.24375159881436 136.60635949248066, 258.13994499621595 138.62539881085945, 253.01672807779616 141.80235872461213" stroke="#0C1A2A" stroke-width="1.5" fill="none"></path></g><g><path d="M265.9088895374489 74.38804333496212 L463.1233892679677 77.08067471850926 L460.923154077565 193.03740808880104 L266.4236585620245 195.20099305952863" stroke="none" stroke-width="0" fill="#FFFFFF"></path><path d="M268.35381120379924 73.25261423518214 C336.4445991361575 77.45796011949894, 403.4196312903454 75.04575439667826, 461.8560855951874 75.57220233326811 M268.6631400340503 75.49647107734778 C308.6365621026741 75.40952687149844, 349.57269436103115 74.87262873196269, 462.28658594022755 75.87810737680886 M464.74783787375475 76.1984999629453 C464.72165184049453 116.13631546710643, 462.3273710087528 153.88291921052723, 463.3548005722015 196.23899670030008 M463.7550437338263 75.31232472845983 C462.8398656626541 105.83272294703889, 462.1252751520116 135.10949119896256, 462.6875905065064 194.03741354914013 M464.355956623341 194.73035291353662 C391.79142475709955 198.8518292605438, 317.4330017090558 195.89830493787272, 268.14053417412356 195.16702858910853 M462.1640851839048 194.99398325495002 C421.8706280139256 193.10016741647559, 380.6584835468551 193.89691838292993, 268.70096565470345 195.35962095563798 M269.3660695403551 196.01699391309296 C268.865631432729 146.31406375477206, 269.900355562949 100.44151593836855, 268.8533722446505 74.79264452393282 M268.2703020880872 195.83604056794368 C268.64328468935736 160.40286842937454, 267.1078852471377 124.4392289642167, 268.5920174763293 75.78488469608065" stroke="#0C1A2A" stroke-width="2" fill="none"></path></g><text x="365.5" y="115" text-anchor="middle" font-family="'Inter', system-ui, sans-serif" font-size="16" font-weight="700" fill="#0C1A2A">Proof System</text><text x="365.5" y="140" text-anchor="middle" font-family="'Inter', system-ui, sans-serif" font-size="12" font-weight="400" fill="rgba(12, 26, 42, 0.6)">Turn data into</text><text x="365.5" y="157" text-anchor="middle" font-family="'Inter', system-ui, sans-serif" font-size="12" font-weight="400" fill="rgba(12, 26, 42, 0.6)">decision-grade evidence</text><g><path d="M468.4539831132839 135.12877792917715 C474.03088706625664 136.16118897691064, 476.7298088787254 135.90947115155342, 491.0051273941587 134.44940901887037 M468.24651739632174 134.32677760589047 C475.72765676022294 135.23036541194662, 484.36739091005325 134.7485054542265, 491.3614867910989 134.6228573145083" stroke="#0C1A2A" stroke-width="1.5" fill="none"></path></g><g><path d="M490.5678893334881 135.25192320771762 C487.49660009058897 132.41626699146045, 484.94808643624623 131.06225778283346, 480.92512926784076 127.6218472153051 M491.252751450134 134.7237146212074 C488.53079398429617 133.28237245826674, 486.15385922262624 131.3588373702314, 480.98275744760184 128.17520110826624" stroke="#0C1A2A" stroke-width="1.5" fill="none"></path></g><g><path d="M490.5539956211856 135.46457655365765 C488.87019389376064 136.61627827902817, 486.251141358654 138.23018714016715, 481.03373560765635 141.7309938143421 M491.01054097419 135.02469714873197 C487.0066880530239 137.68059329599816, 483.73953132806423 140.0279914081517, 481.1882970087179 141.90098896193018" stroke="#0C1A2A" stroke-width="1.5" fill="none"></path></g><g><path d="M497.7018882404202 76.89563970919463 L692.8453504031245 74.99966246042834 L690.9046761637688 196.3257185279444 L494.0697000953971 196.7225733118571" stroke="none" stroke-width="0" fill="#FFFFFF"></path><path d="M494.26010926868344 76.9856178100604 C568.0239481440099 77.83172745363098, 644.4077927623422 75.58091605386106, 691.5933324049491 73.2012684166999 M496.96451569401916 74.15667206963514 C560.8073870337075 76.48456701715592, 625.1437183143883 74.92986801843668, 690.9135859933566 75.36599692607551 M691.8138108843352 75.16356483669723 C692.0608272485872 106.29388846613598, 691.4892869640124 135.60576388039965, 689.9958456285575 193.7006666065939 M691.6122009476284 75.05156282259259 C690.6982295972554 100.23003865482322, 691.0655048432975 126.63852937103691, 691.1869174206768 194.24810163564172 M691.3496408172132 192.87504021695614 C643.6043808639718 194.9865224987769, 596.7960460502936 195.1283987916455, 497.55620160842994 196.75074266952578 M691.0553438234144 194.48025654955848 C628.3417760990299 195.71838679204546, 563.3861049548428 195.00160248433795, 496.8509715602803 195.09659582105036 M494.5042202588689 195.83888847884987 C495.2986012347583 159.90535737160224, 492.959762000254 124.67310855783265, 496.026319720507 74.73701361376287 M496.22557256318765 194.76400840639755 C496.7673335549993 162.57144357976532, 495.95398544920084 127.62253169759495, 495.77027833506827 75.00062332350322" stroke="#0C1A2A" stroke-width="2" fill="none"></path></g><text x="593.5" y="115" text-anchor="middle" font-family="'Inter', system-ui, sans-serif" font-size="16" font-weight="700" fill="#0C1A2A">Alignment System</text><text x="593.5" y="140" text-anchor="middle" font-family="'Inter', system-ui, sans-serif" font-size="12" font-weight="400" fill="rgba(12, 26, 42, 0.6)">Design organizational</text><text x="593.5" y="157" text-anchor="middle" font-family="'Inter', system-ui, sans-serif" font-size="12" font-weight="400" fill="rgba(12, 26, 42, 0.6)">buy-in, don't assume it</text></svg>