<svg xmlns="http://www.w3.org/2000/svg" width="720" height="480" viewBox="0 0 720 480"><g><path d="M321.54777233907396 130.66996989920042 C277.54721254821135 189.88758878673156, 231.873968195453 247.72063874174373, 203.44260941278222 290.5997984415899 M319.8813170311576 129.61330416170944 C285.35168359270625 177.36901124702842, 251.07769506479872 224.3633164339152, 204.6031930098276 289.4689098092351" stroke="#0C1A2A" stroke-width="1.5" fill="none"></path></g><g><path d="M401.5875677940722 131.12674648301177 C429.76774003577174 171.54605445571477, 459.3451089264523 215.73040397427113, 514.1661557289214 290.52308769120606 M399.74080031402565 130.45348346895528 C436.536639094061 179.94283006890464, 473.96498236803143 231.91577551573067, 514.4076017118251 289.2990112922565" stroke="#0C1A2A" stroke-width="1.5" fill="none"></path></g><g><path d="M259.6733934413407 344.247887554162 C307.19431147882364 346.26655294697423, 353.22134240953994 344.6085898728392, 459.17289199430707 343.996462289252 M260.2690893509304 345.3603281248516 C324.31048563115473 344.52584427432924, 389.834239261659 344.7006321985687, 460.64203817197904 344.7452237620719" stroke="#0C1A2A" stroke-width="1.5" fill="none"></path></g><g><path d="M259.85378382856703 21.60940168900885 L460.05016070445913 21.276652856402478 L459.24205211660365 129.5698102829151 L258.0712935382468 131.18899410800006" stroke="none" stroke-width="0" fill="#FFFFFF"></path><path d="M259.0554300577028 19.140066859692126 C304.8831989401365 22.91249337862974, 349.0103673646773 22.606828972429064, 460.90346885114707 21.073609845059984 M261.02725168558055 20.290012797463426 C303.42911509550555 18.80246896439403, 346.15176310798904 18.913566080561836, 460.71696682588583 19.05758756749711 M459.09904086701545 17.659811259934923 C457.3908018965566 53.898775017612344, 460.74341482667205 82.06554515406957, 457.798416486801 130.94484462740303 M459.12629730548656 20.942593247873464 C458.6371011940023 55.77693330702173, 460.42711031358004 88.8661108138555, 459.3275348407982 130.82743700805415 M458.7885027366787 130.16273351551538 C416.52115477152984 131.56790597376613, 375.25662268957245 130.3895288016868, 259.32198278055944 131.40375088179601 M460.1519097965394 130.32396371174954 C397.90771130756065 130.94939260742197, 335.7622636032416 129.9195265693617, 259.97305038538923 129.22350425366287 M261.36046786390546 129.6710485608856 C260.01397980530186 93.46975110528125, 259.97357068307355 52.79692415764986, 258.9160284799975 22.25380336303912 M260.81777191644375 130.14045656992792 C259.3079355062353 106.58477803450019, 258.1447977091289 82.25067900536155, 259.12620968496736 20.926032909896065" stroke="#0C1A2A" stroke-width="2" fill="none"></path></g><text x="360" y="58" text-anchor="middle" font-family="'Inter', system-ui, sans-serif" font-size="17" font-weight="700" fill="#0C1A2A">Scale Failure</text><text x="360" y="82" text-anchor="middle" font-family="'Inter', system-ui, sans-serif" font-size="13" font-weight="400" fill="rgba(12, 26, 42, 0.65)">Delivery becomes a manual</text><text x="360" y="100" text-anchor="middle" font-family="'Inter', system-ui, sans-serif" font-size="13" font-weight="400" fill="rgba(12, 26, 42, 0.65)">service business</text><g><path d="M28.587709299568278 288.059603086707 L258.48412533485515 290.9577672109557 L258.8070220152067 401.05534570295066 L27.797012748155957 400.8536218055998" stroke="none" stroke-width="0" fill="#FFFFFF"></path><path d="M28.405573052289604 292.0353984006463 C98.70668227502298 292.68677868177144, 168.32335013971073 290.51845630193293, 259.1220655922372 289.68295827944394 M30.842737951654883 289.0393750602924 C120.02385684377514 291.3182287093936, 211.34090412630619 289.82135657724655, 259.1367587393986 290.48395037065404 M259.72085197336816 289.0748776114537 C261.36018743012295 325.5238267557334, 258.65888312193465 356.7014389341254, 259.2882610852132 399.99010282098914 M259.7749757188034 289.8934216727687 C261.3537921057386 319.9507066846929, 261.8123635738752 349.56059924547145, 261.06994205910337 400.3953364128914 M261.6922356662344 400.60287666948955 C177.2910414607906 398.9254509112856, 95.97628001076903 401.1603315291768, 29.57505492996891 398.24061108321257 M259.205988026423 399.477793985225 C172.06494074755796 399.0462824312065, 86.67483268612192 400.1076002009283, 29.215493765961238 400.24959735925216 M31.346537988828302 402.2423109749 C29.5532583775643 365.6570471362921, 28.547779640100092 330.8969990294917, 27.973540722895176 288.3254933975151 M29.691634922357995 400.6964743900054 C30.637798418842127 364.5487748644666, 29.999308743355392 329.6582948876571, 30.230882821582142 290.45399914403197" stroke="#0C1A2A" stroke-width="2" fill="none"></path></g><text x="145" y="328" text-anchor="middle" font-family="'Inter', system-ui, sans-serif" font-size="17" font-weight="700" fill="#0C1A2A">Coalition Dynamics</text><text x="145" y="352" text-anchor="middle" font-family="'Inter', system-ui, sans-serif" font-size="13" font-weight="400" fill="rgba(12, 26, 42, 0.65)">Deals die from internal</text><text x="145" y="370" text-anchor="middle" font-family="'Inter', system-ui, sans-serif" font-size="13" font-weight="400" fill="rgba(12, 26, 42, 0.65)">misalignment, not product gaps</text><g><path d="M461.9091115351953 289.09245809622746 L689.2405105528524 291.99144589339903 L689.8064985950991 397.7604316273758 L461.3743923405418 399.3669973134854" stroke="none" stroke-width="0" fill="#FFFFFF"></path><path d="M458.567665226463 289.80369643231876 C546.874696448721 290.5983629492949, 632.0665383418481 291.21034378673755, 688.0482644976684 288.55275239197545 M459.7144422963278 289.465656824291 C535.8193350257519 288.42929838039487, 611.2071378213348 288.35902055761784, 690.0007855600454 289.32888136397827 M690.5599314485271 291.1491174632972 C688.6954352027801 331.4934323004837, 691.1821991813222 373.16729428769236, 691.7400476063656 401.8483712624231 M689.5653631192403 289.6220875945428 C689.7571165163474 331.5336751337413, 690.7551722546195 372.4283517483181, 690.7962428203083 398.88496470646453 M688.683571217794 399.0140849069159 C636.446819067709 398.8841701965781, 581.4885476908389 399.1944597434715, 458.38326866093723 401.19443695187573 M689.5607515056239 399.99570165177863 C608.3380527616131 398.951556941606, 528.5705962753277 399.446307252574, 459.6249960610543 399.6931240477082 M461.7732424490483 398.4516359149925 C460.38687844696136 379.1017461407559, 459.56534444100856 351.71385298452725, 458.6879390995356 292.0581814394774 M460.5155004103653 400.489072901905 C460.17597586576727 365.8170967403106, 459.0656611307753 329.51337254934657, 460.94005413081004 289.3539416233644" stroke="#0C1A2A" stroke-width="2" fill="none"></path></g><text x="575" y="328" text-anchor="middle" font-family="'Inter', system-ui, sans-serif" font-size="17" font-weight="700" fill="#0C1A2A">Absorption Capacity</text><text x="575" y="352" text-anchor="middle" font-family="'Inter', system-ui, sans-serif" font-size="13" font-weight="400" fill="rgba(12, 26, 42, 0.65)">The limiting factor is what</text><text x="575" y="370" text-anchor="middle" font-family="'Inter', system-ui, sans-serif" font-size="13" font-weight="400" fill="rgba(12, 26, 42, 0.65)">the org can absorb</text><g><path d="M260.40744515485653 212.07753440365488 L459.8121052601632 211.51389866425146 L459.31218149227885 249.174902114086 L261.0914266103824 248.06099449650267" stroke="none" stroke-width="0" fill="rgba(30, 144, 255, 0.08)"></path><path d="M259.73704638576544 212.6190911245994 C318.2667770485908 212.18695437351596, 377.1850375824159 213.1800311465998, 460.0640055553131 212.980225083673 M260.12596099950093 211.71773535763052 C324.92722991348677 210.48178095101576, 388.9037606845604 210.929669902294, 459.7065125316444 212.13736613072504 M460.37397149284345 210.99618404008237 C459.88799235613885 223.85164349017518, 460.43249795556454 236.493829020566, 459.0843707803467 247.20830918024998 M460.5345715907501 211.98755999346062 C459.8871806446258 221.6947802770557, 460.09683959866254 232.09832592099752, 460.0716797625579 248.4831323017351 M460.4896619154322 247.62607680454886 C419.35388692059536 247.50047731786404, 377.2209337759527 247.46118173983345, 260.2984066371952 248.72961854482327 M460.0495984695584 247.89811465048504 C414.9060143376984 248.75821489266917, 369.1999073462706 248.65736426124204, 260.3179211596568 247.68789446009598 M259.39620519028716 247.2596463381314 C258.89764467114423 237.0594816629086, 259.9136845212633 223.94130277519287, 260.214806115751 211.89949220367518 M259.7293497633742 248.45106893338146 C259.97568907237917 235.2999931757905, 259.6513446792761 223.2289625437671, 260.4659033258212 211.70556770599106" stroke="#1E90FF" stroke-width="1.5" fill="none"></path></g><text x="360" y="236" text-anchor="middle" font-family="'Inter', system-ui, sans-serif" font-size="14" font-weight="600" fill="#0C1A2A">Where Deals Fall Apart</text></svg>