<svg xmlns="http://www.w3.org/2000/svg" width="480" height="400" viewBox="0 0 480 400"><g><path d="M70.49838062529372 18.21010474731713 L409.7692617842472 20.727448856046678 L410.80250903388657 118.23249200583005 L71.8518239468794 119.44574958995679" stroke="none" stroke-width="0" fill="#FFFFFF"></path><path d="M69.77112737140072 19.292127385887014 C184.43026571503708 20.408034315780753, 297.4983510437902 22.410712906418087, 410.9690448770612 20.019995185592077 M69.69581837460366 20.157942652238113 C166.06175972153366 21.357312146537392, 261.91002754820994 22.25554592054526, 410.01016303968066 19.753821557908587 M409.67324518295953 18.512048817456424 C410.2142841234455 42.99754952286363, 410.1200118397119 65.48753213346788, 410.1420366330687 119.23071656735797 M410.8953646567775 20.853043010135423 C410.575409535628 50.37240800108736, 410.61373810571024 81.52730540622883, 409.6643322094474 120.36420176144603 M410.85253305896896 119.08153987598378 C325.0357026827627 119.66337569533583, 240.31938797760554 117.99772608593793, 69.31901851583328 120.84194484268983 M410.49962348670783 119.38674943628506 C305.3717645387906 119.7740739185026, 200.75386263063015 119.36739163129329, 69.9223428516758 120.44477849346646 M71.81850244893752 121.66087385862741 C72.07963839036687 82.47702417092819, 70.83679325411582 47.418682169512834, 70.79160479236481 18.789657522774768 M70.15370348881399 120.30117843174595 C70.2202148709244 83.0132322610868, 70.46794286609727 47.421627680536446, 69.92919866986857 19.04570414437165" stroke="#0C1A2A" stroke-width="1.8" fill="none"></path></g><text x="240" y="60" text-anchor="middle" font-family="'Inter', system-ui, sans-serif" font-size="17" font-weight="700" fill="#0C1A2A">Complexity Debt</text><text x="240" y="85" text-anchor="middle" font-family="'Inter', system-ui, sans-serif" font-size="13" font-weight="400" fill="rgba(12, 26, 42, 0.6)">The scale ceiling</text><g><path d="M239.79349543056705 125.97121929904806 C239.19118847640476 134.26422752510172, 240.90956726005564 142.81366848092495, 240.11000735607814 149.18006918728685 M239.3844649768942 125.16486521091917 C239.92244209864072 132.1198286080996, 239.82119601645104 139.36060645115063, 240.14862566273754 149.61747405064582" stroke="#0C1A2A" stroke-width="1.5" fill="none"></path></g><g><path d="M239.4939726141624 149.40549960681213 C237.4185406912021 147.5743609053984, 235.90009028145923 144.92779248490075, 232.16698188538848 137.70588693571543 M240.34497135476653 149.87621009489368 C236.82621032742375 144.87791041931197, 233.5335920148004 140.74581391937323, 231.98209457767962 138.1968282240652" stroke="#0C1A2A" stroke-width="1.5" fill="none"></path></g><g><path d="M239.86202214055768 150.28175152646824 C242.30537281768702 147.37663909296302, 243.67753586875853 143.29566376012377, 248.1794630890817 137.34061165201766 M240.19468907037125 149.86409103603617 C242.8460133581771 146.20323844075884, 244.88802216675288 142.1800024727625, 248.2198586318646 138.0489833230457" stroke="#0C1A2A" stroke-width="1.5" fill="none"></path></g><g><path d="M69.62385088939745 156.1830980043854 L409.9274930190773 153.51644638534907 L410.9214861813754 254.89273734738404 L68.32121126229966 254.4533153487067" stroke="none" stroke-width="0" fill="#FFFFFF"></path><path d="M69.24590667739992 156.10090917918507 C194.85124895905625 155.76586839234326, 319.08290313399317 154.97013819382335, 408.78713629717885 155.00861794459038 M70.64303574419144 154.66537834381646 C174.37670440698474 155.63207432615366, 277.83169308015874 156.10717464391263, 409.34040132865107 154.56954148396747 M409.56923495111056 154.39021890378493 C410.9473568414396 191.09558398696856, 411.1517723728727 224.2426183403282, 409.4180553330206 256.8891003206843 M410.43416879267255 155.9952321799506 C408.90684498915004 186.24613930967266, 409.4251266658653 219.4657481785857, 410.4683504790115 255.99805613628325 M410.85757113869124 255.62076986115738 C319.1408027551705 256.4589011862213, 227.87673642049978 256.47269553197884, 70.1144514409128 253.76683849726612 M409.41772928505105 255.10686166800076 C279.5485976160676 252.21744978730646, 148.62234932880716 253.21715791291044, 69.65563910916748 255.3832765537671 M70.97576687622497 254.26025383815147 C70.18029401473713 227.02631023825924, 70.7990321582383 201.95258999139793, 71.04813558445977 154.41077186855992 M70.31165279442546 255.1058527379084 C70.200878835983 226.9924038905257, 70.86675142923517 196.68034407017163, 70.38181638806398 155.9122026048072" stroke="#0C1A2A" stroke-width="1.8" fill="none"></path></g><text x="240" y="195" text-anchor="middle" font-family="'Inter', system-ui, sans-serif" font-size="17" font-weight="700" fill="#0C1A2A">Proof Gaps</text><text x="240" y="220" text-anchor="middle" font-family="'Inter', system-ui, sans-serif" font-size="13" font-weight="400" fill="rgba(12, 26, 42, 0.6)">The gatekeeper</text><g><path d="M239.64229505694516 260.8538549750155 C240.62630569127316 269.78962884909936, 240.95329871492396 278.35896890447225, 238.84985507863527 284.54031932032643 M239.62225969528126 260.2465528784423 C239.80139624066467 265.18812557214034, 240.5868017665745 269.39701636914145, 240.1512675533063 284.88195857942463" stroke="#0C1A2A" stroke-width="1.5" fill="none"></path></g><g><path d="M240.3289597820437 285.35906421730675 C238.38311786400877 281.85636282775926, 235.6503402977173 279.9870223450014, 231.7252319727226 273.35428361218004 M240.23145580868174 284.6674923795148 C237.14528658890617 281.13906294579226, 235.1047524723156 277.4027215071282, 231.77441707332758 273.1423694957598" stroke="#0C1A2A" stroke-width="1.5" fill="none"></path></g><g><path d="M239.74717797256494 284.95379733870277 C241.73414769143662 281.84756698798395, 244.63748580619816 279.47195588728755, 248.50109162163602 272.56166348219534 M239.8102528332936 284.6855300892011 C243.30039673386116 280.58044080364454, 246.37296649535847 275.7461183198843, 248.11221890900455 273.02376279045137" stroke="#0C1A2A" stroke-width="1.5" fill="none"></path></g><g><path d="M71.1733390720927 290.30212101342846 L408.54130863193814 291.2605311299989 L409.2478440959572 391.84921427287867 L71.92342722902032 388.7980056969857" stroke="none" stroke-width="0" fill="#FFFFFF"></path><path d="M69.51668089355302 289.4883618041687 C205.90866923051962 289.21691262900987, 341.40372193085983 288.7475989110818, 410.29435217353927 291.11885245640235 M69.38544518436494 289.72082388193525 C143.5096365987584 290.28735889178563, 217.75152836544896 291.34384580894266, 410.0269331360764 290.2479410859698 M411.6126599033373 291.2446859760844 C409.0848497927837 322.08412463743616, 409.58890524991887 354.4662535196705, 410.5565463033486 390.7308663192191 M409.26726918796464 289.11584776558294 C410.5952530333199 312.52859352715905, 410.6879050990989 333.3369536438953, 410.23362423863097 390.6076402875878 M410.0074718074694 388.6883280907843 C310.5197298302038 393.4328483759747, 213.9652293338599 391.35809421858403, 69.80878806774015 390.11685631947745 M409.7839562166 389.6163114922353 C337.45529934149005 388.34648689417304, 264.9830329793805 387.89399291268626, 69.66965017894614 389.42290809072415 M69.07038675858502 389.2446643442611 C68.05400114605149 354.3825564483598, 71.69348492232172 323.63209448003096, 71.27128258767317 289.55185714009184 M70.77057949805335 390.508432169634 C69.94641563386718 362.3296741827032, 69.95094922398295 334.6555773179702, 69.52288997522558 290.81450225607966" stroke="#0C1A2A" stroke-width="1.8" fill="none"></path></g><text x="240" y="330" text-anchor="middle" font-family="'Inter', system-ui, sans-serif" font-size="17" font-weight="700" fill="#0C1A2A">Growth Pressure</text><text x="240" y="355" text-anchor="middle" font-family="'Inter', system-ui, sans-serif" font-size="13" font-weight="400" fill="rgba(12, 26, 42, 0.6)">No more excuses</text><g><path d="M434.8726739160378 340.0938220652706 C435.11861222290906 260.14609029506346, 434.9257207195143 181.23646093170657, 436.16851919281834 70.10679517862208 M434.90935171030475 340.5848147236932 C436.4045335348519 234.82754465736423, 436.4679361636069 129.39326990510273, 434.98447755454276 70.43353044894573" stroke="#1E90FF" stroke-width="1.2" fill="none" stroke-dasharray="6 4"></path></g><g><path d="M435.4324105001381 69.83926383877383 C432.5935488860761 73.30378024212412, 431.51065856548064 76.06002061200975, 427.9026385784221 79.41975663270465 M435.0717228150114 70.20973895613399 C432.28679101460966 73.73192894479058, 429.6144514727638 77.39648157426683, 428.2883653767446 80.1667708504442" stroke="#1E90FF" stroke-width="1.2" fill="none"></path></g><g><path d="M435.2395458514004 69.58248106614435 C437.3013624159145 73.10159870897694, 439.7165509017115 76.16061534651601, 442.6013708562964 80.1821964271086 M435.1352966859625 70.21679887709494 C436.926450682002 72.61251439936564, 438.33687922747407 74.74228062141955, 442.09672212813734 80.18499290309227" stroke="#1E90FF" stroke-width="1.2" fill="none"></path></g><text x="437" y="209" text-anchor="middle" font-family="'Inter', system-ui, sans-serif" font-size="11" font-weight="500" fill="#1E90FF" transform="rotate(-90, 437, 209)">compounds</text></svg>